<svg width="50" height="50" viewBox="0 0 50 50" fill="none" xmlns="http://www.w3.org/2000/svg">
<path d="M25 23.75C22.632 23.75 20.361 23.0915 18.6865 21.9194C17.0121 20.7473 16.0714 19.1576 16.0714 17.5C16.0714 15.8424 17.0121 14.2527 18.6865 13.0806C20.361 11.9085 22.632 11.25 25 11.25C27.368 11.25 29.639 11.9085 31.3135 13.0806C32.9879 14.2527 33.9286 15.8424 33.9286 17.5C33.9286 18.3208 33.6976 19.1335 33.2489 19.8918C32.8002 20.6501 32.1425 21.3391 31.3135 21.9194C30.4844 22.4998 29.5001 22.9602 28.4168 23.2742C27.3336 23.5883 26.1725 23.75 25 23.75ZM25 0C18.3696 0 12.0107 1.84374 7.32233 5.12563C2.63392 8.40752 0 12.8587 0 17.5C0 30.625 25 50 25 50C25 50 50 30.625 50 17.5C50 12.8587 47.3661 8.40752 42.6777 5.12563C37.9893 1.84374 31.6304 0 25 0Z" fill="#F90E0E"/>
</svg>
